# xmcd
#
# Track frame offsets:
#	150
#	20400
#	41627
#	59629
#	79429
#	98929
#	121129
#	144304
#	162529
#	181729
#	199054
#	221481
#	239556
#	257856
#	282381
#	299556
#
# Disc length: 4269 seconds
#
# Revision: 0
# Processed by: cddbd v1.5.1PL0 Copyright (c) Steve Scherf et al.
# Submitted via: audiograbber 1.83.01
#
DISCID=fb10ab10
DTITLE=Karaoke - SYB-1063
DYEAR=1900
DGENRE=Country
TTITLE0=Destiny's Child - Independent Women
TTITLE1=It's Been Awhile - Staind
TTITLE2=All You Wanted - Michelle Branch
TTITLE3=I'm Like A Bird - Nelly Furtado
TTITLE4=Hanging By A Moment - Lifehouse
TTITLE5=Lady Marmalade - C Aquilera, Lil'Kim, Kya, Pink
TTITLE6=This I Promise You - N'Sync
TTITLE7=Love Don't Cost A Thing - Jennifer Lopez
TTITLE8=It Wasn't Me - Shaggy
TTITLE9=Thank You - Dido
TTITLE10=Blurry - Puddle Of Mudd
TTITLE11=Survivor - Destiny's Child
TTITLE12=He Loves U Not - Dream
TTITLE13=I Wanna Know - Joe
TTITLE14=Play - Jennifer Lopez
TTITLE15=All For You - Janet Jackson
EXTD=
EXTT0=
EXTT1=
EXTT2=
EXTT3=
EXTT4=
EXTT5=
EXTT6=
EXTT7=
EXTT8=
EXTT9=
EXTT10=
EXTT11=
EXTT12=
EXTT13=
EXTT14=
EXTT15=
PLAYORDER=
